<svg xmlns="http://www.w3.org/2000/svg" viewBox="0 0 633.57 337.74"><defs><style>.cls-1{fill:#009080;}.cls-2{fill:#7a8388;}.cls-3{fill:#e23c2d;}</style></defs><title>Recurso 1</title><g id="Capa_2" data-name="Capa 2"><g id="Capa_1-2" data-name="Capa 1"><path class="cls-1" d="M426.15,112c-1.69,1.63-1.2.93-2.9,2.67-.39.42-3.23,3-3.67,3.39A91.32,91.32,0,0,0,384,104.49a95.35,95.35,0,0,0-24.1-.84A90.86,90.86,0,0,0,307,126.08a67.89,67.89,0,0,0-14.4,17.65c-.32.58-.58.56-1.09.28q-11.61-6.44-23.43-12.82c-.63-.35-.63-.6-.3-1.16,1-1.79,2-3.55,2.95-5.39.44-.93.86-.86,1.6-.44q8.54,4.74,17.09,9.29c.53.3.86.53,1.3-.23a71.57,71.57,0,0,1,28.56-27.4A96.72,96.72,0,0,1,356.8,94.25l1.32-.16c1.81-.17,1.81-.17,1.81-2V69.38c0-.93.21-1.23,1.19-1.21q2.89.14,5.78,0c1,0,1.18.33,1.16,1.23V92.3c0,1.11.32,1.37,1.42,1.39a98.4,98.4,0,0,1,53,15.53,40.34,40.34,0,0,0,3.62,2.81"/><path class="cls-2" d="M537.12,174.33H523c-.93,0-1.26-.23-1.39-1.23a180.41,180.41,0,0,0-16.26-53.4,169,169,0,0,0-29.14-42.52,154.51,154.51,0,0,0-64.58-41.65A146.32,146.32,0,0,0,292.29,48.06,157.48,157.48,0,0,0,255.67,77.2a173.75,173.75,0,0,0-41.14,75.12,182.6,182.6,0,0,0-4.25,21.11c0,.72-.35.9-1.05.9H181.77c-1.05,0-1-.53-.91-1.21.35-4.36.81-8.7,1.46-13.05A188.44,188.44,0,0,1,282.21,20.34a181.65,181.65,0,0,1,51.9-17.51A187.34,187.34,0,0,1,360.53.11,181.89,181.89,0,0,1,401.47,3.3,184.84,184.84,0,0,1,496.35,53a188.06,188.06,0,0,1,53.82,102.17c1.05,6,1.74,12.07,2.32,18.13,0,.91-.32,1-1,.95Z"/><path class="cls-1" d="M20,218.43A56.9,56.9,0,0,0,22,234c4,14.18,14.09,22.36,28.28,22.89a28.58,28.58,0,0,0,29.56-19.57,56.22,56.22,0,0,0,1-34.58,30.61,30.61,0,0,0-9.65-15.9,29.67,29.67,0,0,0-22-6.67,27.9,27.9,0,0,0-25.55,18.26,50.6,50.6,0,0,0-3.64,20M0,220.28c0-12,1.72-21.8,6.36-30.88a45,45,0,0,1,32.79-24.54A59.07,59.07,0,0,1,70.4,166.6a45.35,45.35,0,0,1,29.19,29.84,70.18,70.18,0,0,1,3.23,27.3,60.16,60.16,0,0,1-6.11,23.71A45.1,45.1,0,0,1,63,272.3,58.63,58.63,0,0,1,31.62,270c-15-5.53-24.31-16.45-28.88-31.58A63.26,63.26,0,0,1,0,220.28"/><path class="cls-1" d="M138.44,205.59a28.74,28.74,0,0,1,6-6.18c10.27-7.22,21.16-8.85,32.65-3.2A19.9,19.9,0,0,1,186,205.7c.55,1.16.58,1.16,1.37.14a30.59,30.59,0,0,1,19.8-12.4c8.57-1.39,16.68-.41,23.43,5.74a22.36,22.36,0,0,1,7,13.93,68.74,68.74,0,0,1,.63,9.73v47.23c0,1.14-.33,1.39-1.42,1.37h-16c-1.16,0-1.35-.37-1.35-1.42V224.46a51.1,51.1,0,0,0-.25-6.19,10.08,10.08,0,0,0-10.6-9.53l-.62,0a25.07,25.07,0,0,0-15.26,6.2c-3.76,3.11-3.73,3.13-3.73,8v47c0,1-.19,1.41-1.35,1.41h-16c-1.09,0-1.42-.23-1.42-1.37V225.07a39.28,39.28,0,0,0-.49-7.43c-1.23-6.18-5-9.29-11.3-8.89a26.29,26.29,0,0,0-16.49,7.56,6.27,6.27,0,0,0-2.32,5.2v48.56c0,1-.24,1.34-1.3,1.32H121.9c-.86,0-1.16-.14-1.16-1.09V195.81c0-.74.14-1,1-1h13.61c.74,0,1,.16,1.16.95.41,3,.95,6,1.44,9,.32.19.39.37.51.84"/><path class="cls-1" d="M533.59,205.68a28.87,28.87,0,0,1,5.41-5.74c9.78-7.36,20.37-9.28,31.81-4.5a20.16,20.16,0,0,1,10.43,10.24,2.21,2.21,0,0,0,.65,1.07,37.26,37.26,0,0,1,5.39-6,30.47,30.47,0,0,1,31.37-6,21.22,21.22,0,0,1,14.14,17.44,57.44,57.44,0,0,1,.76,10.56V270c0,1-.16,1.37-1.27,1.37h-16c-1.16,0-1.53-.21-1.53-1.46V223.49a30.16,30.16,0,0,0-.6-6.57A10,10,0,0,0,603,208.81a25.17,25.17,0,0,0-14.76,6c-4.07,3.25-4,3.27-4,8.45v46.88c0,1.07-.27,1.33-1.32,1.3h-16c-1.14,0-1.46-.2-1.46-1.41v-46a34,34,0,0,0-.56-6.83,9.9,9.9,0,0,0-11-8.41,25.31,25.31,0,0,0-15.72,6.76c-3.2,2.77-3.16,2.81-3.16,7V269.9c0,1.21-.28,1.54-1.51,1.54H517.2c-.91,0-1.12-.26-1.12-1.14V196c0-.93.28-1.14,1.17-1.14h13.23c1,0,1.21.37,1.32,1.21.7,3,1.24,6.13,1.79,9.61"/><path class="cls-1" d="M442.27,233.1a31.09,31.09,0,0,0,3.2,15.14,17,17,0,0,0,16,9.66,16.72,16.72,0,0,0,15.72-9.66,33.83,33.83,0,0,0,3.13-17.67,31.36,31.36,0,0,0-2.76-11.89,17.87,17.87,0,0,0-31.91-1.07,31.76,31.76,0,0,0-3.36,15.49m19.13-40.19A40.15,40.15,0,0,1,481.93,198a34,34,0,0,1,16.25,22,48.48,48.48,0,0,1-2.32,32.92,33.71,33.71,0,0,1-26.14,19.74,43.72,43.72,0,0,1-24-2.07,32.83,32.83,0,0,1-20.06-21.2,48.07,48.07,0,0,1,1.46-35.9,33.67,33.67,0,0,1,25.15-19.64,41.51,41.51,0,0,1,9.17-.88"/><path class="cls-1" d="M352.94,211.55a42.19,42.19,0,0,0-9.08-2.71,31.48,31.48,0,0,0-13.49.32,18.62,18.62,0,0,0-13.26,11.22,31.86,31.86,0,0,0,0,25.84,19,19,0,0,0,15.7,11.4,39.79,39.79,0,0,0,20.06-2.74,2.35,2.35,0,0,1,1.33-.3v14.54c0,.69-.49.76-.91.93a51,51,0,0,1-12.84,3,49.16,49.16,0,0,1-23-2.69c-12.24-4.76-19.23-13.94-21.6-26.66a49.12,49.12,0,0,1,1.32-24.4,35.78,35.78,0,0,1,27.66-25.24,47.67,47.67,0,0,1,27.21,1.88c.56.18.95.37.95,1.11v14.1a1.43,1.43,0,0,1-.09.41"/><path class="cls-3" d="M430.26,108.25c4.07-3.65,8-7.5,12.13-11a8.57,8.57,0,0,1,7.84-1.46,1.82,1.82,0,0,1,1.35,1.92,5.59,5.59,0,0,1-.6,2.67,18.54,18.54,0,0,1-3.72,5.58c-4.09,4-44.3,44.28-56.59,56.51-.69.7-.79,1.12-.2,2a25.47,25.47,0,0,1,4.45,12.91c0,.86-.18,1.09-1,1.09H343.65c-.9,0-1.13-.21-1.11-1.14a26.38,26.38,0,0,1,20.15-23.75,26,26,0,0,1,15.7,1.16,1.42,1.42,0,0,0,1.79-.3l38.27-35.23Z"/><path class="cls-1" d="M387.52,205.33a40.85,40.85,0,0,1,5.27-6.11,25.6,25.6,0,0,1,17-6.29c1.7,0,3.37,0,5.06.14.72,0,1,.28,1,1.09v14.58c0,.86-.34,1-1,1A42.54,42.54,0,0,0,399.54,212a21.55,21.55,0,0,0-9.82,7,3.05,3.05,0,0,0-.67,2v48.76c0,1.17-.28,1.47-1.44,1.44H371.35c-.88,0-1.13-.21-1.13-1.11V195.76c0-.85.18-1.16,1.11-1.16h13.38c.88,0,1.13.28,1.27,1.14.47,3.3,1,6.43,1.54,9.59"/><path class="cls-1" d="M278,233.06v37c0,1-.2,1.34-1.3,1.32H260.34c-.84,0-1.09-.21-1.09-1.07V195.86c0-1,.32-1.12,1.18-1.09h16.26c1,0,1.18.28,1.18,1.2.14,12.36.16,24.62.16,37.09"/><path class="cls-1" d="M278.5,167.18v9.15c0,.7-.16,1-.93.95H259.76c-.86,0-1-.32-1-1.07V157.92c0-.77.2-1,1-1H277.5c.88,0,1,.33,1,1.12,0,3.13,0,6.18,0,9.17"/><path class="cls-1" d="M428.41,124.74c1.88-2,3.87-3.88,5.8-5.81a67.16,67.16,0,0,1,11.84,15.74l8.78-6.54c1.6-1.19,3.23-2.33,4.81-3.63.46-.35.72-.39,1.11.14,1.28,1.81,2.63,3.56,4,5.32.35.44.35.67-.14,1l-18.69,13.93c-.56.44-.74,0-1-.31-1.67-2.32-3.57-4.64-5.15-7a66.48,66.48,0,0,0-11.33-12.93"/><path class="cls-2" d="M120.74,319.34a8.36,8.36,0,0,1,7-3.32,6.11,6.11,0,0,1,5.41,3c.49.81.7.95,1.37.14a8.38,8.38,0,0,1,8.75-2.93,6,6,0,0,1,4.9,6.06c.21,4.65,0,9.29,0,13.93v.35c-.93.7-2,.19-3,.28s-.53-.56-.53-.93V323.78c.11-5.21-4.23-5.69-7.2-4.14a8.35,8.35,0,0,0-2.32,1.81,2.61,2.61,0,0,0-.79,2v12.31c0,.88-.21,1.16-1.14,1.14-2.44,0-2.44,0-2.44-2.46V323.75c0-5-4-5.66-7-4.2a9,9,0,0,0-2.9,2.48,1.8,1.8,0,0,0-.3,1.37v12.29c0,.88-.14,1.28-1.16,1.25-2.32,0-2.32,0-2.32-2.32V317.76c0-.44-.33-1.25.55-1.16s2-.72,2.33.81a8.53,8.53,0,0,1,.76,1.93"/><path class="cls-2" d="M473.27,319.09c5.92-4.49,9.29-4.25,13.12.88a8.85,8.85,0,0,1,7.68-4,6.38,6.38,0,0,1,6.67,6.09c0,.24,0,.48,0,.71v13.12c0,.79-.21,1-1,1-2.46,0-2.46,0-2.46-2.43V323.68c0-4.64-3.49-5.45-6.55-4.29a8,8,0,0,0-3.37,2.64,2.08,2.08,0,0,0-.39,1.47v12.4c0,.86-.23,1.09-1.07,1.06-2.32,0-2.32,0-2.32-2.32V323.91c0-5.24-4.16-5.66-7-4.24a8.73,8.73,0,0,0-2.67,2.32,2,2,0,0,0-.46,1.55v12.4c0,1-.28,1.21-1.21,1.19-2.32,0-2.32,0-2.32-2.32v-17c0-.44-.26-1.23.62-1.09s1.93-.68,2.33.79a4.15,4.15,0,0,0,.37,1.58"/><path class="cls-2" d="M199.92,326.58v-4.45a1.35,1.35,0,0,0-.32-1.12c-3.23-2.81-8.34-2.85-10.33,1.54a11.67,11.67,0,0,0-.7,6.24,5.92,5.92,0,0,0,3.67,5.48,6.55,6.55,0,0,0,6.85-1.37A2.16,2.16,0,0,0,200,331c-.07-1.6,0-3.08,0-4.57Zm0-8.47V307c0-.77.21-1,1-1,2.58,0,2.58,0,2.58,2.49V335.8c0,.47.37,1.33-.58,1.23s-2,.72-2.32-.83a2.11,2.11,0,0,0-.54-1.28,7.84,7.84,0,0,1-8.77,2.32,8.39,8.39,0,0,1-6.18-7.13,15,15,0,0,1,.51-7.82,8.91,8.91,0,0,1,13.93-4.23,1.2,1.2,0,0,0,.37.05"/><path class="cls-2" d="M574.06,161a7,7,0,0,1,5.37-3.57,6.07,6.07,0,0,1,6.8,6.31c.19,4,0,8,0,11.94,0,.58-.23.72-.79.74-2.6.14-2.6.16-2.6-2.32v-8.52a7.63,7.63,0,0,0-.21-2c-.58-2.32-1.81-3.37-3.78-3.32a4.33,4.33,0,0,0-4,3.58,12,12,0,0,0-.2,2.32v9.28c0,.72-.21,1-1,1-2.32,0-2.32,0-2.32-2.32V165.6a8,8,0,0,0-.28-2.48,3.61,3.61,0,0,0-2.76-2.91,3.93,3.93,0,0,0-3.93,1.58,6.1,6.1,0,0,0-1.23,4V175c0,.93-.2,1.25-1.18,1.23-2.16,0-2.16,0-2.16-2.16,0-5.13,0-10.26-.12-15.42,0-.74.14-1.16,1-1h.23c1.79,0,1.79,0,1.91,1.79v1a6.76,6.76,0,0,1,5.82-3.27,5.75,5.75,0,0,1,5.41,3.78"/><path class="cls-2" d="M24.91,332.62a21.23,21.23,0,0,0,8.57,1.67,10.49,10.49,0,0,0,4.65-1A4.66,4.66,0,0,0,40.66,329a4,4,0,0,0-2.74-3.9,40.47,40.47,0,0,0-6-1.7c-.65-.18-1.32-.35-1.95-.56a6.66,6.66,0,0,1-5.08-6.29,7.49,7.49,0,0,1,4.64-7.82,17.42,17.42,0,0,1,10.89-.44l.7.18c2.2.65,2.53,1.21,2.16,3.51-.14.83-.63.32-.86.23a20.25,20.25,0,0,0-8-1.37,7.8,7.8,0,0,0-3.94,1.25,4.34,4.34,0,0,0,.51,7.27A41.69,41.69,0,0,0,37,321.17c.77.24,1.53.42,2.32.7a7,7,0,0,1,5.11,6.18A7.46,7.46,0,0,1,40,336a19.22,19.22,0,0,1-14.45,0,.87.87,0,0,1-.67-1v-1.81s0-.23,0-.56"/><path class="cls-2" d="M396.48,332.32c1.32-3.5,2.51-6.78,3.74-10,1.67-4.34,3.39-8.66,5-13,.28-.76.63-1.09,1.47-1a20.52,20.52,0,0,0,2.48,0,15.94,15.94,0,0,1-1.14,3.28c-3.18,8.14-6.38,16.25-9.54,24.42a1.3,1.3,0,0,1-1.49,1c-2.11,0-2.11,0-2.85-1.93l-10-25.42c-.51-1.35-.51-1.35.88-1.35,2.33,0,2.33,0,3.09,2.12,2.77,7.24,5.67,14.41,8.34,22"/><path class="cls-2" d="M515.09,324.43h4.45c.38,0,.84.14.89-.51a5.19,5.19,0,0,0-3.6-4.88,5.73,5.73,0,0,0-6.92,4.23c0,.07,0,.14-.05.2-.18.79,0,1,.84,1,1.51,0,2.95,0,4.39,0Zm1.71,3h-6c-1.09,0-1.26.39-1.14,1.32a6.22,6.22,0,0,0,4.64,5.32,14.11,14.11,0,0,0,8-.33c.88-.25,1,0,1,.77,0,1.93,0,1.95-1.85,2.32a17.82,17.82,0,0,1-8,.19,8.36,8.36,0,0,1-7-7A13.23,13.23,0,0,1,508,319.94a9.29,9.29,0,0,1,11.61-3.41,8,8,0,0,1,4.32,6,18.18,18.18,0,0,1,.31,3.83c0,.72-.28.86-.93.84Z"/><path class="cls-2" d="M166.86,330.46v-1.83c0-.37,0-.65-.47-.74a13.16,13.16,0,0,0-7-.28A3.13,3.13,0,0,0,157.1,331a3.25,3.25,0,0,0,2.56,3.34,6.54,6.54,0,0,0,5.29-.86c1.28-.74,2.46-1.46,1.91-3m.16,4.35a9.08,9.08,0,0,1-8.66,2.32,5.87,5.87,0,0,1-4.65-5.37,6.1,6.1,0,0,1,3.65-6.69,12.74,12.74,0,0,1,8.27-.16c1,.26,1.27.12,1.25-1a4.49,4.49,0,0,0-4-4.93,4.66,4.66,0,0,0-.65,0,16.38,16.38,0,0,0-6.69,1c0-.14-.16-.19-.16-.26,0-2.88-.72-2.53,2.6-3.34a14.35,14.35,0,0,1,7.13,0,6.48,6.48,0,0,1,5.31,6.69v12.88c0,.72-.21,1-1,1-2,.06-2,.11-2.46-2.09"/><path class="cls-2" d="M102.61,324.43h4.46c.55,0,.76-.17.76-.77a5,5,0,0,0-3.69-4.64,5.76,5.76,0,0,0-6.8,4.48l0,.16c0,.74.26.7.72.7Zm1.62,3H97.85c-.68,0-.88.18-.79.9a6.59,6.59,0,0,0,7,6.13,15.88,15.88,0,0,0,5.8-.79c.58-.18.77-.11.79.54,0,2.09,0,2.32-2,2.74a17.57,17.57,0,0,1-8.22,0,8.34,8.34,0,0,1-6.57-7.2,12.32,12.32,0,0,1,2.58-10.94,9.28,9.28,0,0,1,10.42-2.11,8.2,8.2,0,0,1,4.64,7c.14.9.12,1.83.21,2.76s-.23,1-1,1c-2.21,0-4.32,0-6.46,0"/><path class="cls-2" d="M218,324.43h4.45c.42,0,.84,0,.86-.63a5.13,5.13,0,0,0-3.43-4.65,5.82,5.82,0,0,0-7,4.26c0,.13-.06.26-.08.39,0,.65.23.65.67.65Zm1.71,3h-6.24c-.81,0-1.05.23-.93,1.07a6.59,6.59,0,0,0,7,6,16.11,16.11,0,0,0,5.69-.75c.65-.2.91-.2.93.61,0,2.06,0,2.11-2,2.6a18.56,18.56,0,0,1-7.64.21,8.5,8.5,0,0,1-7.15-7.41,12.94,12.94,0,0,1,1.65-9.82,9.07,9.07,0,0,1,12.61-2.41,10.07,10.07,0,0,1,1,.81,9.62,9.62,0,0,1,2.32,5.45,9.37,9.37,0,0,0,.19,2.32c.18.75-.21,1.31-1.21,1.26-2.07.07-4.13.07-6.18.07"/><path class="cls-2" d="M254.65,337.43a17.21,17.21,0,0,1-7-1.09A12.36,12.36,0,0,1,239.42,325a18.78,18.78,0,0,1,.51-7,13.94,13.94,0,0,1,12.73-10.27,22.33,22.33,0,0,1,7,.52c.88.2,1.46.55,1.28,1.6a3.16,3.16,0,0,0,0,1c0,.84-.19,1-1,.75a16.8,16.8,0,0,0-8.33-.4A10.79,10.79,0,0,0,243,321.62a16.47,16.47,0,0,0,.61,5.71,10.32,10.32,0,0,0,10.23,7,22.57,22.57,0,0,0,6.55-.79c.68-.17.86,0,.84.6,0,2.6.58,2.32-2.32,2.93a16.34,16.34,0,0,1-4.3.39"/><path class="cls-2" d="M606.13,326.72a9.33,9.33,0,0,0-1-4.64,5.72,5.72,0,0,0-5.34-3.25,5.59,5.59,0,0,0-5.35,3.25,10.17,10.17,0,0,0,0,9.06,5.51,5.51,0,0,0,5.41,3.32,5.62,5.62,0,0,0,5.32-3.3,9.3,9.3,0,0,0,.84-4.44Zm-6.36,10.71a9.44,9.44,0,0,1-10-8.9c0-.22,0-.45,0-.67a11.58,11.58,0,0,1,2.5-8.66,9.89,9.89,0,0,1,10.59-2.74,9,9,0,0,1,6.66,7.73,13.59,13.59,0,0,1,0,5.39,9.28,9.28,0,0,1-9.77,7.85"/><path class="cls-2" d="M426.94,326.7a9.54,9.54,0,0,0-.25-2.32,6.28,6.28,0,0,0-5.64-5.39,6,6,0,0,0-6.3,4.39,10.9,10.9,0,0,0,0,6.73,6.06,6.06,0,0,0,6,4.65,6,6,0,0,0,5.83-4.65,11.83,11.83,0,0,0,.39-3.46Zm3.63,0c0,4.3-1.4,8-5.58,9.85-5.64,2.5-13.93.37-14.39-9a11.41,11.41,0,0,1,2-7.64,9.8,9.8,0,0,1,10.64-3.57,9.14,9.14,0,0,1,7,7.52,12.17,12.17,0,0,1,.38,2.88"/><path class="cls-2" d="M360.65,326.61a7.88,7.88,0,0,0-.28-2.51,6.24,6.24,0,0,0-5.69-5.2,6,6,0,0,0-6.17,4.36,10.8,10.8,0,0,0,0,7,6,6,0,0,0,5.9,4.44,6,6,0,0,0,5.78-4.42,9.76,9.76,0,0,0,.46-3.64m3.65-.26a11.07,11.07,0,0,1-2.67,8.11A9.91,9.91,0,0,1,351,336.94a8.87,8.87,0,0,1-6.46-7.75,12.41,12.41,0,0,1,1.6-9,10,10,0,0,1,10.73-3.9,9.29,9.29,0,0,1,7.2,7.57,10.77,10.77,0,0,1,.26,2.53"/><path class="cls-2" d="M281.84,326.7a9.51,9.51,0,0,0-1.25-4.83,6,6,0,0,0-8.23-2,6.12,6.12,0,0,0-2.22,2.38,10.27,10.27,0,0,0-.58,7.73,6.08,6.08,0,0,0,11.84,0,12.41,12.41,0,0,0,.44-3.32Zm3.63,0c0,5.23-2.53,9.15-6.76,10.29-6.46,1.76-12.73-1.37-13.24-9.29a13.27,13.27,0,0,1,.68-5.23A9.47,9.47,0,0,1,276.32,316a9.3,9.3,0,0,1,8.8,7.87,12.72,12.72,0,0,1,.35,2.81"/><path class="cls-2" d="M294.22,319.39a8.63,8.63,0,0,1,7.2-3.37A6.06,6.06,0,0,1,308,321.5c0,.21,0,.43,0,.65.18,4.64,0,9.29,0,14.1,0,.51-.17.76-.7.69h-.12c-2.74.16-2.74.16-2.74-2.62V324.19a11.64,11.64,0,0,0,0-1.67,3.76,3.76,0,0,0-3.85-3.67,4.5,4.5,0,0,0-.63.07,8.36,8.36,0,0,0-4.76,2.33,3,3,0,0,0-.95,2.32v12.28c0,.77-.19,1-1,1-2.58,0-2.58,0-2.58-2.46V317.67c0-.51-.25-1.3.68-1.19s1.95-.67,2.32.82c.14.81.3,1.27.51,2.09"/><path class="cls-2" d="M446.19,323.92v-6.28c0-.76.14-1.13,1-1.11,2.32,0,2.32,0,2.43,2.32,0,3.76-.23,7.55.14,11.31a5.13,5.13,0,0,0,10.17-.39V317.71c0-1,.3-1.29,1.3-1.25,2.63,0,2.32-.32,2.32,2.32,0,4,.26,7.9-.11,11.8a7.14,7.14,0,0,1-7,6.83,13.18,13.18,0,0,1-4.43-.21,7.23,7.23,0,0,1-5.71-7.11v-6.15Z"/><path class="cls-2" d="M65.25,337.43a12.85,12.85,0,0,1-4.88-.74c-.74-.26-1.35-2.33-.81-2.95s.67,0,1,0a12,12,0,0,0,7,.41,3.06,3.06,0,0,0,2.65-2.85,2.66,2.66,0,0,0-1.7-2.67,25.53,25.53,0,0,0-4.39-1.23,5.26,5.26,0,0,1-4.18-7.34A6.48,6.48,0,0,1,66.11,316a14.31,14.31,0,0,1,6.15.86c.58.21,1.12,2.56.65,2.95s-.6,0-.88-.12a12.08,12.08,0,0,0-6.16-.65,3,3,0,0,0-2.71,2.79,2.78,2.78,0,0,0,2.32,2.74c1.58.42,2.72.63,4.06,1a5.09,5.09,0,0,1,4.21,5,5.75,5.75,0,0,1-3.28,5.69,11.23,11.23,0,0,1-5.22,1.16"/><path class="cls-2" d="M80.11,326.21v-5.52c0-1-.3-1.3-1.23-1.19a5.13,5.13,0,0,1-1,0c-1.85,0-2.32-.62-1.88-2.32.14-.51.45-.51.82-.51h2.32c.72,0,.86-.21.84-.84V312c0-.65.14-1,.86-.93,3.25,0,2.6-.44,2.64,2.53s0,3.09,3.07,3.09h1.69c1.56,0,1.49,0,1.58,1.53s-.35,1.54-1.49,1.44-2.57,0-3.85,0c-.81,0-1,.28-1,1.05v10.12c0,2.81,1.21,3.93,4,3.83h.72c2-.28,2-.3,1.88,1.79,0,.51-.16.81-.72.91a13,13,0,0,1-5.48,0,5.05,5.05,0,0,1-3.81-5.3c0-1.88,0-3.85,0-5.83"/><path class="cls-2" d="M530.88,326.24v-5.78c0-.72-.21-1-1-1s-1.3,0-1.92,0c-1.28.17-1.21-.62-1.19-1.48s-.16-1.56,1.16-1.54c2.91,0,2.91,0,2.91-2.92v-.09c0-2.6,0-2.58,2.62-2.53.77,0,1,.27.93,1v3.74c0,.67.21.93.9.9h4c1.33,0,1.61.38,1.42,1.49a2.08,2.08,0,0,0,0,.61c0,.69-.25.9-.9.9h-4.23c-.86,0-1.18.19-1.16,1.11v10.48a3.05,3.05,0,0,0,2.69,3.39,2.9,2.9,0,0,0,.51,0,10.11,10.11,0,0,0,2.63-.23c.53,0,.76,0,.69.62v.14c.12,2.05,0,2.33-2.06,2.33a10.82,10.82,0,0,1-4.76-.49,5.07,5.07,0,0,1-3.25-5c0-1.88,0-3.76,0-5.66"/><path class="cls-2" d="M315.79,326v-5.29c0-1-.33-1.3-1.25-1.19a7.88,7.88,0,0,1-1.19,0c-1.55,0-1.44,0-1.6-1.53s.65-1.46,1.72-1.44c2.32,0,2.32,0,2.32-2.32v-2.32c0-.79.3-1.07,1.12-1.07,2.43,0,2.32,0,2.46,2.32,0,1.07-.51,2.48.25,3.09s2,.16,3,.18h.95c2.1,0,2.33.33,2,2.33,0,.6-.46.53-.86.53h-4.08c-1,0-1.4.16-1.35,1.28v10a3.28,3.28,0,0,0,2.73,3.74,3.56,3.56,0,0,0,1,0,6.17,6.17,0,0,0,.86,0c2.11-.26,2.09-.26,1.93,1.85a.79.79,0,0,1-.72.86h0a11.83,11.83,0,0,1-5.36,0,5.23,5.23,0,0,1-3.95-5.73c-.16-1.56,0-3.49,0-5.3"/><path class="cls-2" d="M573.67,326.42c0,4.86,2.09,7.57,6.13,8.06a11.56,11.56,0,0,0,5.08-.67c.91-.33,1.1,0,1.1.79,0,1.85,0,1.92-1.79,2.32-4.18,1-8.18.86-11.47-2.32a10.35,10.35,0,0,1-2.74-8.43,9.73,9.73,0,0,1,7.38-9.78,12,12,0,0,1,7.11.33,2.32,2.32,0,0,1,1,2.95c-.28.44-.65.11-1,0a11.92,11.92,0,0,0-4.39-.65,6.5,6.5,0,0,0-6.43,6.1c0,.54-.07,1.07-.07,1.3"/><path class="cls-2" d="M369.85,321.31V307c0-.83.2-1.09,1.06-1.09,2.49,0,2.49,0,2.49,2.32v27.48c0,.95-.23,1.22-1.18,1.2-2.33,0-2.33,0-2.33-2.32Z"/><path class="cls-2" d="M439.64,321.52v14.1c0,1.14-.34,1.39-1.41,1.34-2.12,0-2.12,0-2.12-2.18V307.2c0-1.07.28-1.37,1.33-1.33,2.32,0,2.32,0,2.32,2.16Z"/><path class="cls-2" d="M333.85,319.57a9,9,0,0,1,7-3.57c.77,0,1,.21,1,1,0,2.09,0,2.09-2,2.32a9.28,9.28,0,0,0-5.1,2.32,2.64,2.64,0,0,0-1,2.21v12.05c0,.84-.25,1.09-1.09,1.07-2.48,0-2.48,0-2.48-2.32V317.81c0-.47-.26-1.26.63-1.12s2-.74,2.32.84a6.31,6.31,0,0,0,.69,2"/><path class="cls-2" d="M548.92,319.69a9.08,9.08,0,0,1,7.24-3.69c.75,0,1,.18,1,.95s.19,1.56-.11,2.11-1.26.24-1.91.35a10.66,10.66,0,0,0-4.64,1.88,3,3,0,0,0-1.3,2.65v11.79c0,.89-.14,1.28-1.16,1.26-2.32,0-2.32,0-2.32-2.32v-17c0-.46-.21-1.2.65-1s1.95-.72,2.32.81a6.84,6.84,0,0,0,.28,2.23"/><path class="cls-2" d="M594.73,161a7.22,7.22,0,0,1,3.69-3.39,5.72,5.72,0,0,1,1.79-.23c.56,0,.84.18.77.76v.37a4.73,4.73,0,0,1,0,1.91c-.33.63-1.16.16-1.77.25a5.05,5.05,0,0,0-4,5.2v9.29c0,.91-.25,1.16-1.16,1.14-2.32,0-2.32,0-2.32-2.32,0-5.09.19-10.2-.16-15.28,0-.79.16-1.07,1-1,2.33,0,2.07-.3,2.09,2,0,.52.05.93.05,1.33"/><path class="cls-2" d="M54,326.79v9c0,.84-.14,1.19-1.09,1.19-2.46,0-2.46,0-2.46-2.32V318c0-.95.16-1.35,1.23-1.33,2.32,0,2.32,0,2.32,2.33Z"/><path class="cls-2" d="M564.38,326.82V336c0,.79-.21,1-1,1-2.32,0-2.32,0-2.32-2.43V318c0-1.05.23-1.4,1.3-1.35,2.16,0,2.16,0,2.16,2.16Z"/><path class="cls-2" d="M520.52,305.39c-1.18,2.46-2.32,4.8-3.41,7.12a4.26,4.26,0,0,1-2.81.28c-.26-.25,0-.53,0-.76.72-2,1.46-4.07,2.2-6.09a.72.72,0,0,1,.77-.58Z"/><path class="cls-2" d="M50.43,310.08c0-1.91,0-1.91,1.91-1.91,1.51,0,1.51,0,1.51,1.61,0,2.11,0,2.11-1.79,2.11s-1.63,0-1.63-1.81"/><path class="cls-2" d="M564.24,310.1c0,1.79,0,1.79-1.74,1.79s-1.72,0-1.72-1.72c0-2.16-.25-2,1.6-2s1.86,0,1.86,1.91"/></g></g></svg>